<?xml version="1.0" standalone="no"?>
<!DOCTYPE svg PUBLIC "-//W3C//DTD SVG 20010904//EN"
 "http://www.w3.org/TR/2001/REC-SVG-20010904/DTD/svg10.dtd">
<svg version="1.0" xmlns="http://www.w3.org/2000/svg"
 width="671.000000pt" height="671.000000pt" viewBox="0 0 671.000000 671.000000"
 preserveAspectRatio="xMidYMid meet">
<metadata>
Created by potrace 1.14, written by Peter Selinger 2001-2017
</metadata>
<g transform="translate(0.000000,671.000000) scale(0.100000,-0.100000)"
fill="#000000" stroke="none">
<path d="M43 5117 c2 -32 -1 -61 -5 -63 -5 -3 -6 -10 -2 -15 7 -12 9 -148 1
-155 -3 -3 -1 -17 4 -31 6 -17 6 -30 -1 -38 -5 -6 -7 -14 -4 -17 3 -3 5 -37 5
-75 -1 -37 -1 -77 -1 -88 0 -11 0 -67 0 -125 -1 -58 -1 -112 0 -120 0 -8 0
-62 0 -120 -1 -58 -1 -112 0 -120 0 -8 0 -62 0 -120 -1 -58 -1 -112 0 -120 0
-8 0 -62 0 -120 -1 -58 -1 -112 0 -120 0 -8 0 -62 0 -120 -1 -58 -1 -112 0
-120 0 -8 0 -62 0 -120 -1 -58 -1 -112 0 -120 2 -144 1 -222 -3 -227 -3 -3 -1
-16 4 -30 6 -17 6 -30 -1 -38 -5 -6 -7 -14 -4 -17 3 -3 5 -37 4 -74 0 -38 0
-78 0 -89 0 -11 0 -67 0 -125 -1 -58 -1 -112 0 -120 0 -8 0 -62 0 -120 -1 -58
-1 -112 0 -120 2 -160 1 -222 -3 -227 -3 -3 -1 -16 4 -30 6 -17 6 -30 -1 -38
-5 -6 -7 -14 -4 -17 3 -3 5 -37 5 -75 -1 -37 -1 -77 -1 -88 0 -11 0 -46 0 -77
l-1 -58 236 0 235 0 1 63 c2 281 -2 1460 -6 1567 -7 213 -16 478 -21 674 -3
100 -6 206 -8 236 -1 30 2 61 8 69 8 11 8 13 0 8 -7 -4 -11 30 -13 110 -1 64
-4 121 -7 127 -3 6 2 2 10 -9 9 -11 14 -25 12 -32 -3 -7 -1 -13 4 -13 5 0 12
-10 15 -22 4 -13 15 -42 26 -65 10 -24 19 -49 19 -56 0 -7 4 -17 9 -22 17 -19
61 -147 55 -157 -4 -7 -2 -8 4 -4 7 4 13 2 13 -3 3 -20 5 -26 18 -49 7 -13 10
-30 7 -38 -3 -9 -1 -12 4 -9 9 6 14 -8 11 -27 0 -5 4 -8 9 -8 6 0 10 -8 10
-18 0 -10 6 -24 12 -30 10 -10 10 -15 -2 -22 -13 -8 -12 -10 4 -10 12 0 16 -5
12 -16 -3 -8 -2 -12 4 -9 6 3 10 0 10 -8 0 -7 10 -33 21 -57 12 -24 22 -54 23
-66 0 -12 4 -20 9 -17 4 2 7 -2 7 -10 0 -8 7 -28 16 -45 8 -18 12 -37 8 -44
-4 -7 -3 -10 1 -5 7 6 67 -122 79 -168 2 -11 45 -104 54 -119 3 -5 1 -7 -4 -3
-5 3 5 -24 23 -61 17 -36 30 -69 27 -73 -2 -4 0 -9 5 -11 5 -1 11 -12 13 -23
1 -11 5 -22 9 -25 7 -7 44 -103 44 -116 0 -6 5 -18 11 -25 19 -25 45 -100 38
-111 -4 -7 -2 -8 4 -4 7 4 12 2 12 -4 0 -6 9 -30 20 -52 11 -23 20 -47 20 -54
0 -7 10 -32 21 -56 12 -23 25 -52 29 -63 5 -11 14 -36 21 -55 8 -19 14 -37 15
-40 0 -3 6 -18 12 -33 7 -16 9 -33 6 -39 -4 -6 -3 -8 3 -5 13 8 67 -128 57
-144 -4 -7 -3 -9 3 -6 12 8 24 -16 19 -35 -1 -7 -1 -9 2 -5 2 5 19 -28 38 -74
18 -45 31 -86 28 -90 -3 -5 0 -9 6 -9 7 0 9 -7 6 -16 -3 -8 -2 -12 4 -9 6 3
11 0 12 -7 3 -29 4 -34 15 -53 23 -42 61 -144 55 -149 -3 -3 0 -6 6 -6 7 0 12
-9 12 -19 0 -11 5 -23 11 -26 6 -4 8 -13 5 -21 -3 -8 -2 -14 2 -14 9 0 62
-129 62 -149 0 -8 55 -11 184 -11 l184 0 13 29 c7 16 16 28 20 25 4 -2 5 5 2
16 -3 11 -1 20 4 20 5 0 10 6 10 13 0 21 37 107 46 107 5 0 6 4 3 9 -3 4 4 27
15 51 11 23 22 50 24 60 2 10 8 26 13 36 25 47 46 100 44 112 -2 6 2 12 8 12
6 0 9 4 5 9 -3 5 1 16 9 24 8 8 13 17 10 19 -2 3 2 18 11 34 8 16 15 35 15 42
0 7 5 10 12 6 7 -4 8 -3 4 4 -6 11 8 54 35 104 5 10 9 25 9 33 0 8 4 15 10 15
5 0 9 3 9 8 -3 20 2 42 14 54 6 7 14 22 15 33 2 11 8 23 14 26 5 3 9 9 9 13
-1 3 -1 7 0 9 0 1 2 11 4 23 6 32 31 75 39 67 4 -4 4 0 0 10 -3 10 1 28 10 42
9 14 14 25 11 25 -3 0 0 10 7 23 7 12 13 24 13 27 9 37 19 60 26 60 5 0 9 8 9
18 0 10 3 22 7 26 5 4 8 11 9 14 3 26 18 62 25 62 5 0 8 3 7 8 -4 13 54 152
61 148 4 -3 7 5 6 17 -1 12 0 27 4 32 3 6 6 12 7 15 2 13 18 47 28 59 6 7 11
19 11 25 1 28 49 135 58 129 5 -3 7 -2 4 4 -8 13 18 85 28 76 4 -5 5 -3 2 4
-9 15 2 45 14 37 5 -3 6 1 4 9 -3 7 1 27 10 43 8 16 15 35 15 42 0 6 5 12 11
12 5 0 7 5 4 10 -4 6 -3 16 3 23 5 7 17 35 27 64 10 29 23 49 28 46 6 -4 7 -1
2 6 -4 7 -3 23 3 34 6 12 25 58 43 102 18 44 35 82 38 85 7 6 13 29 14 48 0 6
4 12 9 12 4 0 8 9 8 19 0 11 5 23 10 26 6 4 8 11 5 16 -4 5 -1 9 4 9 6 0 10 3
10 8 -3 20 2 32 13 26 6 -4 8 -3 4 4 -6 10 13 67 53 156 10 23 29 69 41 104
26 72 37 85 34 39 -2 -18 -4 -112 -6 -209 -2 -98 -5 -178 -8 -178 -3 0 -6 -73
-6 -163 -3 -318 -9 -497 -17 -497 -4 0 -4 -7 1 -15 4 -9 5 -39 2 -68 -4 -29
-8 -421 -9 -872 l-2 -820 235 3 c215 2 236 4 236 20 1 22 1 3329 0 3447 l0 90
-301 0 c-257 0 -303 -2 -310 -15 -7 -14 -134 -330 -144 -360 -1 -3 -6 -16 -12
-30 -6 -14 -124 -308 -262 -655 -139 -346 -256 -639 -261 -650 -21 -46 -72
-171 -74 -180 -2 -5 -7 -19 -11 -30 -5 -11 -95 -235 -200 -499 -106 -263 -194
-472 -197 -465 -3 8 -85 212 -183 454 -97 242 -341 850 -543 1350 -201 501
-381 948 -399 995 l-35 85 -303 0 -304 0 2 -58z"/>
<path d="M4409 5145 c0 -16 -2 -816 -2 -1778 l-2 -1747 1131 0 1131 0 -1 192
-1 192 -890 1 -890 0 -5 60 c-3 33 -2 81 1 108 3 26 4 49 1 51 -6 7 -3 296 3
306 3 5 1 11 -4 14 -5 3 -6 21 -2 38 3 18 4 67 1 108 -3 41 -2 97 1 123 3 26
2 50 -2 53 -5 2 -6 11 -3 18 9 22 9 246 1 246 -5 0 -6 4 -3 8 3 5 6 33 7 64
l2 56 756 0 c416 0 761 1 767 1 9 1 12 55 10 194 l-1 192 -762 0 c-419 0 -765
3 -768 7 -8 8 -8 145 0 157 3 6 1 12 -4 15 -5 3 -6 21 -2 38 3 18 4 67 1 108
-3 41 -2 96 1 123 3 26 4 49 1 51 -6 7 -3 296 3 306 3 5 1 11 -5 15 -6 4 -8
11 -4 16 3 6 5 52 4 102 -1 51 -1 97 -1 102 1 6 2 31 3 58 2 52 1 51 30 36 11
-6 18 -7 15 -2 -3 5 28 9 69 9 46 0 74 -3 74 -10 0 -8 3 -8 8 -1 11 16 45 13
60 -5 11 -13 11 -13 6 1 -4 12 1 16 18 15 13 0 26 -5 30 -11 5 -7 8 -6 8 0 0
6 9 11 20 12 13 1 18 -2 14 -9 -5 -7 -2 -8 7 -2 26 16 123 13 136 -5 12 -15
13 -15 7 0 -4 12 1 16 18 15 13 0 26 -5 30 -11 5 -7 8 -6 8 0 0 6 9 11 20 12
13 1 18 -2 14 -9 -5 -7 -2 -8 7 -2 26 16 123 13 136 -5 12 -15 13 -15 7 0 -4
12 1 16 18 15 13 0 26 -5 30 -11 5 -7 8 -6 8 0 0 6 9 11 20 12 13 1 18 -2 14
-9 -5 -7 -2 -8 7 -2 21 13 701 13 718 0 11 -8 13 -8 7 2 -9 15 -1 15 26 1 15
-8 19 -8 13 0 -4 8 4 11 25 9 22 -2 29 -6 25 -18 -3 -9 1 -8 10 4 15 20 15 20
30 0 9 -12 13 -13 10 -4 -4 11 1 16 15 17 11 1 18 -2 15 -7 -3 -5 -1 -12 5
-15 6 -4 9 -3 8 2 -1 4 2 17 8 28 7 16 10 229 5 360 -1 20 -8 20 -1116 20
l-1115 0 -1 -30z"/>
<path d="M5311 4757 c-13 -21 -12 -21 5 -5 10 10 16 20 13 22 -3 3 -11 -5 -18
-17z"/>
<path d="M5551 4757 c-13 -21 -12 -21 5 -5 10 10 16 20 13 22 -3 3 -11 -5 -18
-17z"/>
<path d="M3135 1601 c-3 -5 -2 -12 3 -15 5 -3 9 1 9 9 0 17 -3 19 -12 6z"/>
<path d="M496 1588 c3 -5 10 -6 15 -3 13 9 11 12 -6 12 -8 0 -12 -4 -9 -9z"/>
</g>
</svg>
